<mxfile host="app.diagrams.net" modified="2024-03-07T08:22:28.602Z" agent="Mozilla/5.0 (Windows NT 10.0; Win64; x64) AppleWebKit/537.36 (KHTML, like Gecko) Chrome/122.0.0.0 Safari/537.36" version="23.1.2" etag="ffu0VS4N20CIqBx7T0_9" type="github">
  <diagram name="Page-1" id="Dsd7RLAv_pcuICUm3pZY">
    <mxGraphModel>
      <root>
        <mxCell id="0" />
        <mxCell id="1" parent="0" />
      </root>
    </mxGraphModel>
  </diagram>
</mxfile>
